<?xml version="1.0" encoding="UTF-8"?>
<svg version="1.1" xmlns="http://www.w3.org/2000/svg" width="500" height="500">
<path d="M0 0 C165 0 330 0 500 0 C500 165 500 330 500 500 C335 500 170 500 0 500 C0 335 0 170 0 0 Z " fill="#16123C" transform="translate(0,0)"/>
<path d="M0 0 C0.9845668 -0.00191345 1.96913361 -0.0038269 2.98353577 -0.00579834 C5.05339821 -0.00715152 7.12326939 -0.00351609 9.19311523 0.00488281 C12.33532063 0.01558299 15.47695289 0.00496362 18.61914062 -0.0078125 C20.64192833 -0.00649053 22.66471568 -0.00392736 24.6875 0 C25.6138475 -0.00404846 26.54019501 -0.00809692 27.49461365 -0.01226807 C38.44473851 0.06519712 47.48719004 1.57744303 55.578125 9.34765625 C63.53396247 17.854171 64.86548108 24.28757596 64.7734375 35.69921875 C64.77418526 37.48707542 64.77418526 37.48707542 64.77494812 39.31105042 C64.77261362 41.82497835 64.76292209 44.33890889 64.74633789 46.8527832 C64.72275804 50.68657495 64.72578084 54.51966979 64.73242188 58.35351562 C64.72684403 60.80208745 64.71973349 63.25065637 64.7109375 65.69921875 C64.71184891 66.83902695 64.71276031 67.97883514 64.71369934 69.15318298 C64.62375314 79.32489642 63.34732894 86.54843529 56.41015625 94.265625 C46.9156535 103.34732328 37.57950801 104.41870732 24.98046875 104.43359375 C23.99070038 104.43692215 23.00093201 104.44025055 21.98117065 104.44367981 C19.89516665 104.44872393 17.80915463 104.45108892 15.72314453 104.45092773 C12.55227209 104.4531132 9.38174847 104.47129315 6.2109375 104.49023438 C4.17578243 104.49316913 2.14062572 104.49515338 0.10546875 104.49609375 C-1.3012056 104.50687202 -1.3012056 104.50687202 -2.73629761 104.51786804 C-13.70852736 104.48026283 -21.06960509 102.33757716 -29.58984375 95.265625 C-31.96484375 92.765625 -31.96484375 92.765625 -33.58984375 90.265625 C-34.31171875 89.193125 -35.03359375 88.120625 -35.77734375 87.015625 C-39.66213598 79.9606782 -38.76994454 70.8483526 -38.828125 63.01953125 C-38.83619675 61.96837631 -38.84426849 60.91722137 -38.85258484 59.83421326 C-38.86633953 57.62313445 -38.87709969 55.41203518 -38.88500977 53.20092773 C-38.89655688 50.95411902 -38.91705138 48.70733831 -38.9465332 46.46069336 C-38.98937799 43.18845266 -39.00539765 39.91701819 -39.015625 36.64453125 C-39.03313309 35.65256241 -39.05064117 34.66059357 -39.06867981 33.63856506 C-39.03886567 23.94486563 -36.20549062 16.07758287 -29.50390625 9.01953125 C-20.82443795 1.06630418 -11.4304401 -0.04984609 0 0 Z " fill="#371F58" transform="translate(64.58984375,195.734375)"/>
<path d="M0 0 C3.1875 1.125 3.1875 1.125 5 3 C5.3125 6.1875 5.3125 6.1875 5 9 C5.60328125 8.96519531 6.2065625 8.93039063 6.828125 8.89453125 C7.62734375 8.86746094 8.4265625 8.84039062 9.25 8.8125 C10.03890625 8.77769531 10.8278125 8.74289063 11.640625 8.70703125 C14.68917695 9.08557661 15.8291921 9.8244143 18 12 C18.51757812 14.95507812 18.51757812 14.95507812 18.53125 18.53125 C18.53898437 20.45904297 18.53898437 20.45904297 18.546875 22.42578125 C18.53430664 23.42859131 18.53430664 23.42859131 18.52148438 24.45166016 C18.50006585 26.49372181 18.52128292 28.53226638 18.546875 30.57421875 C18.54171875 31.85941406 18.5365625 33.14460938 18.53125 34.46875 C18.52673828 35.64888672 18.52222656 36.82902344 18.51757812 38.04492188 C18 41 18 41 16.515625 42.88110352 C12.81144129 44.52864563 9.20030912 44.44784993 5.21875 44.43359375 C4.36825073 44.4388356 3.51775146 44.44407745 2.64147949 44.44947815 C0.84612112 44.45589191 -0.94927931 44.4545697 -2.74462891 44.44604492 C-5.49066943 44.43752894 -8.23463336 44.46631307 -10.98046875 44.49804688 C-12.72656188 44.49965888 -14.47265868 44.49908137 -16.21875 44.49609375 C-17.03863403 44.50732773 -17.85851807 44.51856171 -18.70324707 44.53013611 C-22.35568644 44.48549891 -24.40842202 44.38713221 -27.515625 42.35375977 C-29.41462652 39.34253055 -29.51648146 37.39452991 -29.53125 33.84375 C-29.53640625 32.65652344 -29.5415625 31.46929687 -29.546875 30.24609375 C-29.53140625 29.00988281 -29.5159375 27.77367187 -29.5 26.5 C-29.51546875 25.26378906 -29.5309375 24.02757812 -29.546875 22.75390625 C-29.54171875 21.56667969 -29.5365625 20.37945312 -29.53125 19.15625 C-29.52673828 18.07150391 -29.52222656 16.98675781 -29.51757812 15.86914062 C-28.88330334 12.35310419 -27.79042158 11.16402671 -25 9 C-22.640625 8.609375 -22.640625 8.609375 -20.25 8.75 C-19.45078125 8.78609375 -18.6515625 8.8221875 -17.828125 8.859375 C-16.92320313 8.92898437 -16.92320313 8.92898437 -16 9 C-16.103125 8.2575 -16.20625 7.515 -16.3125 6.75 C-16 4 -16 4 -14.1875 1.6875 C-9.48396904 -0.80260463 -5.21511968 -0.63332038 0 0 Z " fill="#5D9CF0" transform="translate(82,227)"/>
<path d="M0 0 C19.75 0 19.75 0 25.4375 5.25 C27.48046228 8.84561362 27.57325731 10.91554166 27 15 C24.74740081 19.33833918 22.5926563 22.20287362 18 24 C14.62313929 24.23342355 11.39348419 24.13573937 8 24 C8 28.29 8 32.58 8 37 C5.36 37 2.72 37 0 37 C0 24.79 0 12.58 0 0 Z " fill="#5E98EC" transform="translate(153,234)"/>
<path d="M0 0 C2.98449271 2.30232295 4.94595544 4.25244115 5.5859375 8.0546875 C5.53709091 13.28127315 5.38330149 17.31990463 2.1875 21.6875 C-2.73726509 25.29098665 -7.93099854 25.40547593 -13.8125 24.6875 C-16.94844153 23.41977896 -18.37796548 22.16698636 -20.625 19.6875 C-22.46969803 15.02721025 -22.57970688 10.62368009 -21.8125 5.6875 C-20.10416897 1.99341666 -17.6210699 0.10076906 -14 -1.75 C-8.8888528 -2.65196715 -4.71093392 -2.19843583 0 0 Z " fill="#9688F0" transform="translate(364.8125,246.3125)"/>
<path d="M0 0 C2.70791378 2.24558704 4.3719312 3.83755261 4.8984375 7.39453125 C4.98695142 13.15678724 4.59031955 16.6617405 0.5625 21.125 C-3.31275783 24.54434514 -7.1018876 24.57634989 -12.06640625 24.4140625 C-16.11127714 23.92094809 -18.33950247 22.32232738 -21.03515625 19.3828125 C-23.72235084 15.05635436 -23.13822105 10.02349852 -22.4375 5.125 C-20.82002938 1.63712096 -18.41963707 -0.24752354 -15.1875 -2.3125 C-9.61434457 -3.45246361 -4.97806756 -2.71530958 0 0 Z " fill="#6F97F1" transform="translate(226.4375,246.875)"/>
<path d="M0 0 C3.56863214 4.21521357 2.77440053 8.57124146 2.5546875 13.8984375 C2.53212891 14.9296875 2.50957031 15.9609375 2.48632812 17.0234375 C2.42745913 19.56657815 2.34528815 22.10676863 2.2421875 24.6484375 C-0.0678125 24.6484375 -2.3778125 24.6484375 -4.7578125 24.6484375 C-5.0878125 23.6584375 -5.4178125 22.6684375 -5.7578125 21.6484375 C-6.0878125 22.1434375 -6.4178125 22.6384375 -6.7578125 23.1484375 C-9.36022185 25.10024451 -11.61410266 25.19224342 -14.81640625 25.0625 C-16.7578125 24.6484375 -16.7578125 24.6484375 -19.2578125 22.5234375 C-21.04733835 19.09351296 -21.55016836 17.45174563 -20.7578125 13.6484375 C-17.24874245 9.49295981 -14.77541065 8.38745322 -9.3828125 7.8359375 C-7.84217187 7.75186124 -6.30038108 7.6819716 -4.7578125 7.6484375 C-5.0878125 6.6584375 -5.4178125 5.6684375 -5.7578125 4.6484375 C-11.84189722 4.45029489 -11.84189722 4.45029489 -17.7578125 5.6484375 C-17.7578125 3.6684375 -17.7578125 1.6884375 -17.7578125 -0.3515625 C-11.57363359 -3.04723023 -6.01784949 -2.94925768 0 0 Z " fill="#A882F0" transform="translate(425.7578125,246.3515625)"/>
<path d="M0 0 C3.46431342 2.06368778 5.69626439 4.08879316 7 8 C7 10.31 7 12.62 7 15 C1.39 15 -4.22 15 -10 15 C-8.5 19 -8.5 19 -6 20 C-2.16063232 20.1421988 1.32016639 20.17754676 5 19 C5 20.65 5 22.3 5 24 C0.21387357 26.82662996 -4.5950373 26.50596233 -10 26 C-13.58922531 24.65404051 -14.64627282 23.51229454 -16.8125 20.375 C-18.32396632 16.07925361 -18.97494432 12.49254342 -18 8 C-13.8087514 0.83825483 -8.26471726 -2.4905194 0 0 Z " fill="#7C90EE" transform="translate(272,245)"/>
<path d="M0 0 C3.10501256 1.84622368 3.83621763 2.50865288 5 6 C5.08106686 7.55421729 5.10756898 9.11167027 5.09765625 10.66796875 C5.09443359 11.56064453 5.09121094 12.45332031 5.08789062 13.37304688 C5.07951172 14.30181641 5.07113281 15.23058594 5.0625 16.1875 C5.05798828 17.12787109 5.05347656 18.06824219 5.04882812 19.03710938 C5.03704626 21.35813712 5.02059558 23.67903644 5 26 C2.36 26 -0.28 26 -3 26 C-3.06058594 24.71222656 -3.12117188 23.42445313 -3.18359375 22.09765625 C-3.26798247 20.41925841 -3.3526313 18.74087364 -3.4375 17.0625 C-3.47681641 16.21236328 -3.51613281 15.36222656 -3.55664062 14.48632812 C-3.59853516 13.67744141 -3.64042969 12.86855469 -3.68359375 12.03515625 C-3.72025146 11.2862915 -3.75690918 10.53742676 -3.79467773 9.76586914 C-3.81771063 7.97538674 -3.81771063 7.97538674 -5 7 C-6.98 7 -8.96 7 -11 7 C-11.33 13.27 -11.66 19.54 -12 26 C-14.64 26 -17.28 26 -20 26 C-20 17.42 -20 8.84 -20 0 C-17.36 0 -14.72 0 -12 0 C-11.67 0.66 -11.34 1.32 -11 2 C-10.29875 1.484375 -9.5975 0.96875 -8.875 0.4375 C-5.31068305 -1.34465847 -3.77560114 -1.12464715 0 0 Z " fill="#9C83ED" transform="translate(396,245)"/>
<path d="M0 0 C0 1.98 0 3.96 0 6 C-1.65 6.33 -3.3 6.66 -5 7 C-5.33 8.98 -5.66 10.96 -6 13 C-4.02 13 -2.04 13 0 13 C0 14.98 0 16.96 0 19 C-1.98 19 -3.96 19 -6 19 C-6 25.6 -6 32.2 -6 39 C-8.64 39 -11.28 39 -14 39 C-14 32.4 -14 25.8 -14 19 C-15.32 19 -16.64 19 -18 19 C-18 17.02 -18 15.04 -18 13 C-16.68 13 -15.36 13 -14 13 C-14.0825 11.948125 -14.165 10.89625 -14.25 9.8125 C-13.96269651 5.43112175 -13.05154419 4.05154419 -10 1 C-6.78548731 -0.60725635 -3.56387464 -0.05748185 0 0 Z " fill="#7592EF" transform="translate(252,232)"/>
<path d="M0 0 C1.35158203 0.15275391 1.35158203 0.15275391 2.73046875 0.30859375 C3.41753906 0.39238281 4.10460937 0.47617188 4.8125 0.5625 C4.8125 2.5425 4.8125 4.5225 4.8125 6.5625 C1.5125 6.2325 -1.7875 5.9025 -5.1875 5.5625 C-2.7359293 10.4656414 -1.10280204 10.57913251 3.8125 12.5625 C5.8125 13.8125 5.8125 13.8125 6.8125 15.5625 C6.875 19 6.875 19 5.8125 22.5625 C2.16594292 26.30501911 -0.90694433 26.80898221 -5.9375 26.875 C-10.81574207 26.74837896 -10.81574207 26.74837896 -13.1875 25.5625 C-13.1875 23.5825 -13.1875 21.6025 -13.1875 19.5625 C-12.671875 19.7275 -12.15625 19.8925 -11.625 20.0625 C-8.45386124 20.71299 -5.41531666 20.6245734 -2.1875 20.5625 C-2.1875 19.5725 -2.1875 18.5825 -2.1875 17.5625 C-2.73019531 17.39234375 -3.27289063 17.2221875 -3.83203125 17.046875 C-7.06667128 15.95117711 -9.63481115 15.06337427 -12.1875 12.75 C-13.56717424 9.7319626 -13.73408313 7.84199879 -13.1875 4.5625 C-8.98620732 0.36120732 -5.79103465 -0.67687418 0 0 Z " fill="#828DED" transform="translate(295.1875,244.4375)"/>
<path d="M0 0 C4.29 0 8.58 0 13 0 C13 8.58 13 17.16 13 26 C8.71 26 4.42 26 0 26 C0 17.42 0 8.84 0 0 Z " fill="#3B2164" transform="translate(70,240)"/>
<path d="M0 0 C1.19882812 0.15275391 1.19882812 0.15275391 2.421875 0.30859375 C3.02515625 0.39238281 3.6284375 0.47617188 4.25 0.5625 C4.25 2.5425 4.25 4.5225 4.25 6.5625 C0.95 6.2325 -2.35 5.9025 -5.75 5.5625 C-5.75 6.8825 -5.75 8.2025 -5.75 9.5625 C-5.13511719 9.74425781 -4.52023437 9.92601562 -3.88671875 10.11328125 C-2.67435547 10.49033203 -2.67435547 10.49033203 -1.4375 10.875 C-0.23673828 11.24044922 -0.23673828 11.24044922 0.98828125 11.61328125 C3.40872778 12.62911632 4.67559901 13.47007029 6.25 15.5625 C6.3125 19 6.3125 19 5.25 22.5625 C1.60344292 26.30501911 -1.46944433 26.80898221 -6.5 26.875 C-11.37824207 26.74837896 -11.37824207 26.74837896 -13.75 25.5625 C-13.75 23.5825 -13.75 21.6025 -13.75 19.5625 C-13.234375 19.7275 -12.71875 19.8925 -12.1875 20.0625 C-9.01636124 20.71299 -5.97781666 20.6245734 -2.75 20.5625 C-2.75 19.5725 -2.75 18.5825 -2.75 17.5625 C-3.68972656 17.18158203 -3.68972656 17.18158203 -4.6484375 16.79296875 C-5.46570313 16.44878906 -6.28296875 16.10460937 -7.125 15.75 C-7.93710937 15.41355469 -8.74921875 15.07710938 -9.5859375 14.73046875 C-11.75 13.5625 -11.75 13.5625 -13.75 10.5625 C-13.52877238 4.3681266 -13.52877238 4.3681266 -10.9375 1.6875 C-7.12538005 -0.27301883 -4.23440444 -0.56043588 0 0 Z " fill="#B37EF0" transform="translate(461.75,244.4375)"/>
<path d="M0 0 C1.35158203 0.15275391 1.35158203 0.15275391 2.73046875 0.30859375 C3.41753906 0.39238281 4.10460937 0.47617188 4.8125 0.5625 C4.8125 2.5425 4.8125 4.5225 4.8125 6.5625 C1.5125 6.5625 -1.7875 6.5625 -5.1875 6.5625 C-5.1875 7.2225 -5.1875 7.8825 -5.1875 8.5625 C-4.47722656 8.91183594 -3.76695312 9.26117188 -3.03515625 9.62109375 C-2.11605469 10.07613281 -1.19695312 10.53117188 -0.25 11 C0.66652344 11.45246094 1.58304687 11.90492188 2.52734375 12.37109375 C4.8125 13.5625 4.8125 13.5625 5.8125 14.5625 C6.40238764 20.81530899 6.40238764 20.81530899 3.9375 23.9375 C0.53068406 26.54271219 -1.43763723 26.69868385 -5.6875 26.6875 C-6.6671875 26.69007813 -7.646875 26.69265625 -8.65625 26.6953125 C-11.1875 26.5625 -11.1875 26.5625 -13.1875 25.5625 C-13.1875 23.5825 -13.1875 21.6025 -13.1875 19.5625 C-12.1975 19.8925 -11.2075 20.2225 -10.1875 20.5625 C-8.79310336 20.62915376 -7.39580125 20.64788199 -6 20.625 C-4.741875 20.604375 -3.48375 20.58375 -2.1875 20.5625 C-1.8575 19.5725 -1.5275 18.5825 -1.1875 17.5625 C-1.80238281 17.38074219 -2.41726563 17.19898438 -3.05078125 17.01171875 C-3.85902344 16.76035156 -4.66726563 16.50898438 -5.5 16.25 C-6.30050781 16.00636719 -7.10101563 15.76273437 -7.92578125 15.51171875 C-10.34744884 14.49537121 -11.5917436 13.63647992 -13.1875 11.5625 C-13.6875 8.125 -13.6875 8.125 -13.1875 4.5625 C-9.05009976 0.31327813 -5.76326052 -0.67362785 0 0 Z " fill="#8B8DF0" transform="translate(318.1875,244.4375)"/>
<path d="M0 0 C2.64 0 5.28 0 8 0 C8 12.87 8 25.74 8 39 C5.36 39 2.72 39 0 39 C0 26.13 0 13.26 0 0 Z " fill="#AB7EED" transform="translate(435,232)"/>
<path d="M0 0 C0 2.31 0 4.62 0 7 C-1.134375 7.28875 -2.26875 7.5775 -3.4375 7.875 C-4.613125 8.24625 -5.78875 8.6175 -7 9 C-8.585869 12.171738 -8.37866445 15.63513822 -8.5625 19.125 C-8.60568359 19.87910156 -8.64886719 20.63320313 -8.69335938 21.41015625 C-8.7994832 23.27321888 -8.90025001 25.13658524 -9 27 C-11.31 27 -13.62 27 -16 27 C-16 18.42 -16 9.84 -16 1 C-13.69 1 -11.38 1 -9 1 C-8.67 1.99 -8.34 2.98 -8 4 C-7.54625 3.525625 -7.0925 3.05125 -6.625 2.5625 C-4.26031371 0.28876318 -3.34212253 0 0 0 Z " fill="#699DF6" transform="translate(201,244)"/>
<path d="M0 0 C2.64 0 5.28 0 8 0 C9 1 9 1 9.11352539 3.40844727 C9.10828857 4.45057373 9.10305176 5.4927002 9.09765625 6.56640625 C9.09443359 7.69111328 9.09121094 8.81582031 9.08789062 9.97460938 C9.07951172 11.15861328 9.07113281 12.34261719 9.0625 13.5625 C9.05798828 14.75037109 9.05347656 15.93824219 9.04882812 17.16210938 C9.03699675 20.10812226 9.02051287 23.05403681 9 26 C6.03 26 3.06 26 0 26 C0 17.42 0 8.84 0 0 Z " fill="#422564" transform="translate(87,240)"/>
<path d="M0 0 C2.64 0 5.28 0 8 0 C8 8.58 8 17.16 8 26 C5.36 26 2.72 26 0 26 C-1.71567792 24.28432208 -1.13015825 22.02627265 -1.1328125 19.6875 C-1.13410156 18.61242187 -1.13539062 17.53734375 -1.13671875 16.4296875 C-1.13091797 14.73199219 -1.13091797 14.73199219 -1.125 13 C-1.12886719 11.86820313 -1.13273437 10.73640625 -1.13671875 9.5703125 C-1.13542969 8.49523437 -1.13414063 7.42015625 -1.1328125 6.3125 C-1.13168457 5.31863281 -1.13055664 4.32476562 -1.12939453 3.30078125 C-1 1 -1 1 0 0 Z " fill="#332869" transform="translate(58,240)"/>
<path d="M0 0 C2.64 0 5.28 0 8 0 C8 8.58 8 17.16 8 26 C5.36 26 2.72 26 0 26 C0 17.42 0 8.84 0 0 Z " fill="#8E89EE" transform="translate(329,245)"/>
<path d="M0 0 C2.41486943 2.41486943 2.2961925 3.12707789 2.3125 6.4375 C2.32925781 7.21996094 2.34601563 8.00242187 2.36328125 8.80859375 C1.91464467 11.5148854 1.17972559 12.37669148 -1 14 C-4 14.4375 -4 14.4375 -7 14 C-9.83268842 11.63942631 -9.98743809 10.11933812 -10.375 6.4375 C-10 3 -10 3 -8.9375 1.0625 C-5.92115289 -0.59162584 -3.36333392 -0.30575763 0 0 Z " fill="#1A1844" transform="translate(221,251)"/>
<path d="M0 0 C3.5 0.25 3.5 0.25 5.5 2.25 C5.80078125 4.5625 5.80078125 4.5625 5.8125 7.25 C5.82925781 8.136875 5.84601563 9.02375 5.86328125 9.9375 C5.74339844 10.700625 5.62351562 11.46375 5.5 12.25 C2.04754176 14.55163882 0.55261287 14.59490322 -3.5 14.25 C-5.5 12.25 -5.5 12.25 -5.765625 9.9375 C-5.76046875 9.050625 -5.7553125 8.16375 -5.75 7.25 C-5.75515625 6.363125 -5.7603125 5.47625 -5.765625 4.5625 C-5.30264583 0.53185785 -3.88850494 0.27775035 0 0 Z " fill="#191541" transform="translate(356.5,250.75)"/>
<path d="M0 0 C6.0546875 -0.1953125 6.0546875 -0.1953125 8 0 C10 2 10 2 10.25 5.5 C10 9 10 9 8 11 C5.31160615 11.26991906 2.70858064 11.08737357 0 11 C0 7.37 0 3.74 0 0 Z " fill="#1B1C49" transform="translate(161,241)"/>
<path d="M0 0 C3.0625 0.1875 3.0625 0.1875 5.0625 2.1875 C4.69568342 5.12203261 4.19812754 6.05187246 2.0625 8.1875 C-2.49305556 7.63194444 -2.49305556 7.63194444 -3.9375 6.1875 C-4.0625 3.6875 -4.0625 3.6875 -3.9375 1.1875 C-2.9375 0.1875 -2.9375 0.1875 0 0 Z " fill="#8B87E9" transform="translate(332.9375,232.8125)"/>
<path d="M0 0 C0.22732116 2.80362763 0.34081872 4.46186517 -1.1875 6.875 C-3 8 -3 8 -5.6875 7.6875 C-6.450625 7.460625 -7.21375 7.23375 -8 7 C-8.625 5.125 -8.625 5.125 -9 3 C-6.40198864 0.40198864 -3.67135617 0 0 0 Z " fill="#241D4D" transform="translate(421,258)"/>
<path d="M0 0 C3.96 0 7.92 0 12 0 C12 1.32 12 2.64 12 4 C7.71 4 3.42 4 -1 4 C-0.67 2.68 -0.34 1.36 0 0 Z " fill="#3B2366" transform="translate(71,232)"/>
<path d="M0 0 C1.98 0 3.96 0 6 0 C6.33 1.65 6.66 3.3 7 5 C4.03 5 1.06 5 -2 5 C-1.34 3.35 -0.68 1.7 0 0 Z " fill="#1D1A47" transform="translate(264,250)"/>
</svg>
